<?xml version="1.0" encoding="utf-8"?>
<!-- Generator: Adobe Illustrator 19.1.0, SVG Export Plug-In . SVG Version: 6.00 Build 0)  -->
<svg version="1.1" id="devotion-svg" xmlns="http://www.w3.org/2000/svg" xmlns:xlink="http://www.w3.org/1999/xlink" x="0px" y="0px" viewBox="-7 8 25 25" style="enable-background:new -7 8 25 25;" xml:space="preserve"><path d="M15.8,14.5C15.1,14,13.4,13,11,12.9c-2.8-0.1-4.8,1.1-5.4,1.6c-0.8-0.5-2.4-1.3-4.7-1.4c-2.7-0.1-4.7,0.9-5.5,1.4 c0,4.6,0,9.2-0.1,13.9c0.5-0.4,2.4-1.8,5.2-1.8c2.6,0,4.4,1.3,5,1.7c0.6-0.4,2.5-1.8,5.4-1.8c2.6,0.1,4.3,1.3,4.9,1.8 C15.8,23.6,15.8,19.1,15.8,14.5z M0.4,24.1c-1.1,0-2.1,0.3-2.7,0.5c0-2.9,0-5.8-0.1-8.7c0.6-0.3,1.9-0.7,3.6-0.5 c1.2,0.2,2.1,0.6,2.6,0.9c0,2.8,0,5.6-0.1,8.4C3.2,24.5,2,24,0.4,24.1z M13.4,24.7c-0.6-0.3-1.6-0.6-2.9-0.6c-1.5,0-2.6,0.4-3.2,0.7 c0-2.8,0-5.6-0.1-8.4c0.5-0.3,1.5-0.9,2.9-1.1c1.5-0.1,2.7,0.3,3.2,0.6C13.4,18.8,13.4,21.8,13.4,24.7z"/></svg>
