<?xml version="1.0" encoding="utf-8"?>
<!-- Generator: Adobe Illustrator 19.1.0, SVG Export Plug-In . SVG Version: 6.00 Build 0)  -->
<svg version="1.1" id="sermon-svg" xmlns="http://www.w3.org/2000/svg" xmlns:xlink="http://www.w3.org/1999/xlink" x="0px" y="0px" viewBox="-7 8 25 25" style="enable-background:new -7 8 25 25;" xml:space="preserve"><g><path d="M5.6,21.2c0.9,0,1.6-0.7,1.6-1.6v-5.2c0-0.9-0.7-1.6-1.6-1.6c-0.9,0-1.6,0.7-1.6,1.6v5.2C4,20.5,4.7,21.2,5.6,21.2z"/><path d="M9,19c0.3,1.6-0.4,3.2-1.8,4c-0.1,0-1.7,0.9-3.3,0.1c-1.4-0.7-2.1-2.4-1.8-4c-0.6,0-1.1,0-1.7,0c0,0.5,0,0.9,0,1.4 c0.1,0.5,0.2,1.4,0.8,2.3C1.5,23,2.2,24,3.4,24.5c0.5,0.2,0.9,0.2,1.1,0.2c0,0.6,0,1.2,0.1,1.8c-0.8,0-1.6,0-2.4,0 c0,0.5,0,1.1,0,1.6c2.2,0,4.4,0,6.6,0c0-0.5,0-1,0-1.6c-0.9,0-1.8,0-2.7,0c0-0.6,0-1.2,0-1.8c0.2,0,0.4-0.1,0.7-0.2 c0.5-0.1,1.8-0.5,2.7-1.7c0.7-1,0.8-2.1,0.8-2.5c0-0.5,0-0.9,0-1.4C10,19,9.5,19,9,19z"/></g></svg>
