<?xml version="1.0" encoding="utf-8"?>
<!-- Generator: Adobe Illustrator 19.1.0, SVG Export Plug-In . SVG Version: 6.00 Build 0)  -->
<svg version="1.1" id="Layer_1" xmlns="http://www.w3.org/2000/svg" xmlns:xlink="http://www.w3.org/1999/xlink" x="0px" y="0px"
	 viewBox="0 0 20.3 20.1" style="enable-background:new 0 0 20.3 20.1;" xml:space="preserve">
<style type="text/css">
	.st0{fill:#FFFFFF;stroke:#FFFFFF;}
</style>
<path class="st0" d="M19.5,17.5l-4.9-4.8c0.9-1.2,1.5-2.8,1.5-4.4c0-4.1-3.3-7.5-7.5-7.5S1.2,4.1,1.2,8.2s3.3,7.5,7.5,7.5
	c1.7,0,3.4-0.6,4.6-1.6l4.9,4.8c0.1,0.1,0.3,0.1,0.4,0l1-1C19.7,17.8,19.7,17.6,19.5,17.5z M8.6,13.6c-3,0-5.4-2.4-5.4-5.4
	s2.4-5.4,5.4-5.4S14,5.3,14,8.2S11.6,13.6,8.6,13.6z"/>
</svg>
