<?xml version="1.0" encoding="utf-8"?>
<!-- Generator: Adobe Illustrator 19.1.0, SVG Export Plug-In . SVG Version: 6.00 Build 0)  -->
<svg version="1.1" id="Layer_1" xmlns="http://www.w3.org/2000/svg" xmlns:xlink="http://www.w3.org/1999/xlink" x="0px" y="0px"
	 viewBox="0 0 30 30" style="enable-background:new 0 0 30 30;" xml:space="preserve">
<style type="text/css">
	.st0{fill:none;stroke:#000000;stroke-miterlimit:10;}
</style>
<path class="st0" d="M28.4,23.9l-8.2-8.8l8.2-8.8c0.9-1,0.9-2.6-0.1-3.5l-1.4-1.3c-1-0.9-2.6-0.9-3.5,0.1l-7.8,8.4L7.7,1.7
	c-0.9-1-2.5-1.1-3.5-0.1L2.8,2.9c-1,0.9-1.1,2.5-0.1,3.5l8.2,8.8l-8.2,8.8c-0.9,1-0.9,2.6,0.1,3.5l1.4,1.3c1,0.9,2.6,0.9,3.5-0.1
	l7.8-8.4l7.8,8.4c0.9,1,2.5,1.1,3.5,0.1l1.4-1.3C29.3,26.5,29.3,24.9,28.4,23.9z"/>
</svg>
